<?xml version="1.0" encoding="UTF-8"?>
<svg xmlns="http://www.w3.org/2000/svg" width="162.0" height="162.0" viewBox="0 0 48.0 48.0">
  <g>
    <path d="M4.5,12C4.5,10.067 6.067,8.5 8,8.5H40C41.933,8.5 43.5,10.067 43.5,12V36C43.5,37.933 41.933,39.5 40,39.5H8C6.067,39.5 4.5,37.933 4.5,36V12ZM8,10.5C7.172,10.5 6.5,11.172 6.5,12V36C6.5,36.828 7.172,37.5 8,37.5H40C40.828,37.5 41.5,36.828 41.5,36V12C41.5,11.172 40.828,10.5 40,10.5H8Z" fill="#A3DBC0" />
    <path d="M19.5,15.5C19.5,14.395 20.395,13.5 21.5,13.5H26.5C27.605,13.5 28.5,14.395 28.5,15.5C28.5,16.605 27.605,17.5 26.5,17.5H21.5C20.395,17.5 19.5,16.605 19.5,15.5ZM10.5,16C10.5,15.172 11.172,14.5 12,14.5H14.5C15.052,14.5 15.5,14.948 15.5,15.5C15.5,16.052 15.052,16.5 14.5,16.5H12.5V31.5H35.5V16.5H33.5C32.948,16.5 32.5,16.052 32.5,15.5C32.5,14.948 32.948,14.5 33.5,14.5H36C36.828,14.5 37.5,15.172 37.5,16V32C37.5,32.828 36.828,33.5 36,33.5H12C11.172,33.5 10.5,32.828 10.5,32V16ZM16,22.5C16,21.948 16.448,21.5 17,21.5H31C31.552,21.5 32,21.948 32,22.5C32,23.052 31.552,23.5 31,23.5H17C16.448,23.5 16,23.052 16,22.5ZM19,27.5C19,26.948 19.448,26.5 20,26.5H28C28.552,26.5 29,26.948 29,27.5C29,28.052 28.552,28.5 28,28.5H20C19.448,28.5 19,28.052 19,27.5Z" fill="#A3DBC0" />
  </g>
</svg>
