<?xml version="1.0" encoding="UTF-8"?>
<svg xmlns="http://www.w3.org/2000/svg" width="162.0" height="162.0" viewBox="0 0 48.0 48.0">
  <g>
    <path d="M18.613,25.625C18.613,25.093 19.044,24.662 19.576,24.662H28.439C28.97,24.662 29.401,25.093 29.401,25.625C29.401,26.156 28.97,26.587 28.439,26.587H19.576C19.044,26.587 18.613,26.156 18.613,25.625Z" fill="#A3DBC0" />
    <path d="M11.415,11.016C12.23,9.239 14.006,8.1 15.961,8.1H32.033C33.987,8.1 35.763,9.239 36.578,11.016L39.457,17.297L42.837,21.529C43.262,22.06 43.493,22.721 43.493,23.401V38.1H43.503V38.25C43.503,39.078 42.831,39.75 42.003,39.75H38.215C37.386,39.75 36.715,39.078 36.715,38.25V33.45H11.293V38.25C11.293,39.078 10.621,39.75 9.793,39.75H6.005C5.176,39.75 4.505,39.078 4.505,38.25V23.401H4.5C4.5,22.721 4.731,22.06 5.156,21.529L8.536,17.297L11.415,11.016ZM15.961,10.1C14.788,10.1 13.722,10.783 13.233,11.849L10.953,16.825H37.041L34.76,11.849C34.271,10.783 33.205,10.1 32.033,10.1H15.961ZM38.118,18.825H9.875L6.719,22.777C6.577,22.954 6.5,23.174 6.5,23.401V31.45H41.493V23.401C41.493,23.174 41.416,22.954 41.274,22.777L38.118,18.825ZM9.293,33.45H6.505V37.75H9.293V33.45ZM41.503,33.45H38.715V37.75H41.503V33.45Z" fill="#A3DBC0" />
  </g>
</svg>
