<?xml version="1.0" encoding="UTF-8"?>
<svg xmlns="http://www.w3.org/2000/svg" width="162.0" height="162.0" viewBox="0 0 48.0 48.0">
  <path d="M8,6C8,5.172 8.672,4.5 9.5,4.5H36.5C38.433,4.5 40,6.067 40,8V40C40,41.933 38.433,43.5 36.5,43.5H9.5C8.672,43.5 8,42.828 8,42V6ZM36.5,6.5H10V41.5H36.5C37.328,41.5 38,40.828 38,40V8C38,7.172 37.328,6.5 36.5,6.5ZM13.4,20C13.4,14.201 18.101,9.5 23.9,9.5C29.699,9.5 34.4,14.201 34.4,20C34.4,25.799 29.699,30.5 23.9,30.5C18.101,30.5 13.4,25.799 13.4,20ZM24.26,11.807L23.9,11.433L23.54,11.807C23.309,12.047 22.995,12.477 22.64,13.256C22.052,14.551 21.621,16.37 21.47,18.464L21.432,19H26.368L26.33,18.464C26.179,16.37 25.748,14.551 25.16,13.256C24.805,12.477 24.491,12.047 24.26,11.807ZM20.498,13.214L20.971,11.942L19.786,12.603C17.631,13.804 16.038,15.892 15.56,18.407L15.447,19H19.421L19.451,18.531C19.576,16.517 19.949,14.69 20.498,13.214ZM28.014,12.603L26.829,11.942L27.302,13.214C27.851,14.69 28.224,16.517 28.349,18.531L28.378,19H32.353L32.24,18.407C31.762,15.892 30.169,13.804 28.014,12.603ZM19.421,21H15.447L15.56,21.593C16.038,24.108 17.631,26.195 19.786,27.397L20.971,28.058L20.498,26.786C19.949,25.31 19.576,23.483 19.451,21.469L19.421,21ZM26.368,21H21.432L21.47,21.536C21.621,23.63 22.052,25.449 22.64,26.744C22.995,27.523 23.309,27.953 23.54,28.193L23.9,28.568L24.26,28.193C24.491,27.953 24.805,27.523 25.16,26.744C25.748,25.449 26.179,23.63 26.33,21.536L26.368,21ZM32.353,21H28.378L28.349,21.469C28.224,23.483 27.851,25.31 27.302,26.786L26.829,28.058L28.014,27.397C30.169,26.195 31.762,24.108 32.24,21.593L32.353,21ZM17,36C17,35.448 17.448,35 18,35H30C30.552,35 31,35.448 31,36C31,36.552 30.552,37 30,37H18C17.448,37 17,36.552 17,36Z" fill="#A3DBC0" />
</svg>
